<svg width="653" height="717" viewBox="0 0 653 717" fill="none" xmlns="http://www.w3.org/2000/svg">
<g filter="url(#filter0_f_40_45)">
<path fill-rule="evenodd" clip-rule="evenodd" d="M338.497 110.722C393.689 106.088 453.788 83.0241 497.8 123.57C545.107 167.149 565.145 244.455 561.602 316.252C558.232 384.572 517.663 436.308 479.859 487.234C438.798 542.547 399.867 612.766 338.497 616.795C275.551 620.927 224.539 561.897 180.91 506.86C138.454 453.303 96.3346 390.299 100.254 316.252C104.033 244.85 151.715 190.128 199.874 148.582C239.966 113.994 289.37 114.846 338.497 110.722Z" fill="url(#paint0_linear_40_45)" fill-opacity="0.5"/>
</g>
<defs>
<filter id="filter0_f_40_45" x="0" y="0" width="662" height="717" filterUnits="userSpaceOnUse" color-interpolation-filters="sRGB">
<feFlood flood-opacity="0" result="BackgroundImageFix"/>
<feBlend mode="normal" in="SourceGraphic" in2="BackgroundImageFix" result="shape"/>
<feGaussianBlur stdDeviation="50" result="effect1_foregroundBlur_40_45"/>
</filter>
<linearGradient id="paint0_linear_40_45" x1="519.665" y1="126.128" x2="92.1861" y2="474.566" gradientUnits="userSpaceOnUse">
<stop stop-color="#C4C4C4" stop-opacity="0.81"/>
<stop offset="0.0001" stop-color="#FF7658"/>
<stop offset="1" stop-color="#CC0909"/>
</linearGradient>
</defs>
</svg>
