<svg width="144" height="22" viewBox="0 0 144 22" fill="none" xmlns="http://www.w3.org/2000/svg">
<path d="M3.204 9.556C3.204 9.94 3.75 10.27 4.842 10.546C5.226 10.63 5.574 10.732 5.886 10.852C6.198 10.96 6.51 11.122 6.822 11.338C7.146 11.542 7.398 11.818 7.578 12.166C7.758 12.514 7.848 12.916 7.848 13.372C7.848 14.296 7.5 15.01 6.804 15.514C6.108 16.006 5.25 16.252 4.23 16.252C2.382 16.252 1.122 15.538 0.45 14.11L2.466 12.976C2.742 13.756 3.33 14.146 4.23 14.146C5.058 14.146 5.472 13.888 5.472 13.372C5.472 12.988 4.926 12.658 3.834 12.382C3.426 12.274 3.078 12.166 2.79 12.058C2.502 11.95 2.19 11.794 1.854 11.59C1.518 11.374 1.26 11.104 1.08 10.78C0.912 10.444 0.828 10.054 0.828 9.61C0.828 8.722 1.152 8.026 1.8 7.522C2.46 7.006 3.276 6.748 4.248 6.748C4.98 6.748 5.646 6.916 6.246 7.252C6.846 7.576 7.32 8.044 7.668 8.656L5.688 9.736C5.4 9.124 4.92 8.818 4.248 8.818C3.948 8.818 3.696 8.89 3.492 9.034C3.3 9.166 3.204 9.34 3.204 9.556ZM16.0583 8.062V7H18.3803V16H16.0583V14.938C15.3623 15.814 14.3843 16.252 13.1243 16.252C11.9243 16.252 10.8923 15.796 10.0283 14.884C9.17625 13.96 8.75025 12.832 8.75025 11.5C8.75025 10.18 9.17625 9.058 10.0283 8.134C10.8923 7.21 11.9243 6.748 13.1243 6.748C14.3843 6.748 15.3623 7.186 16.0583 8.062ZM11.7743 13.336C12.2423 13.804 12.8363 14.038 13.5563 14.038C14.2763 14.038 14.8703 13.804 15.3383 13.336C15.8183 12.856 16.0583 12.244 16.0583 11.5C16.0583 10.756 15.8183 10.15 15.3383 9.682C14.8703 9.202 14.2763 8.962 13.5563 8.962C12.8363 8.962 12.2423 9.202 11.7743 9.682C11.3063 10.15 11.0723 10.756 11.0723 11.5C11.0723 12.244 11.3063 12.856 11.7743 13.336ZM27.3078 8.062V3.4H29.6298V16H27.3078V14.938C26.6238 15.814 25.6518 16.252 24.3918 16.252C23.1798 16.252 22.1418 15.796 21.2778 14.884C20.4258 13.96 19.9998 12.832 19.9998 11.5C19.9998 10.18 20.4258 9.058 21.2778 8.134C22.1418 7.21 23.1798 6.748 24.3918 6.748C25.6518 6.748 26.6238 7.186 27.3078 8.062ZM23.0238 13.336C23.5158 13.804 24.1158 14.038 24.8238 14.038C25.5438 14.038 26.1378 13.804 26.6058 13.336C27.0738 12.856 27.3078 12.244 27.3078 11.5C27.3078 10.756 27.0738 10.15 26.6058 9.682C26.1378 9.202 25.5438 8.962 24.8238 8.962C24.1038 8.962 23.5038 9.202 23.0238 9.682C22.5558 10.15 22.3218 10.756 22.3218 11.5C22.3218 12.244 22.5558 12.856 23.0238 13.336ZM36.0374 16.252C34.6814 16.252 33.5474 15.796 32.6354 14.884C31.7354 13.972 31.2854 12.844 31.2854 11.5C31.2854 10.156 31.7354 9.028 32.6354 8.116C33.5474 7.204 34.6814 6.748 36.0374 6.748C36.9134 6.748 37.7114 6.958 38.4314 7.378C39.1514 7.798 39.6974 8.362 40.0694 9.07L38.0714 10.24C37.8914 9.868 37.6154 9.574 37.2434 9.358C36.8834 9.142 36.4754 9.034 36.0194 9.034C35.3234 9.034 34.7474 9.268 34.2914 9.736C33.8354 10.192 33.6074 10.78 33.6074 11.5C33.6074 12.196 33.8354 12.784 34.2914 13.264C34.7474 13.72 35.3234 13.948 36.0194 13.948C36.4874 13.948 36.9014 13.846 37.2614 13.642C37.6334 13.426 37.9094 13.132 38.0894 12.76L40.1054 13.912C39.7094 14.632 39.1454 15.202 38.4134 15.622C37.6934 16.042 36.9014 16.252 36.0374 16.252ZM46.3375 6.748C47.3335 6.748 48.1435 7.078 48.7675 7.738C49.4155 8.41 49.7395 9.322 49.7395 10.474V16H47.4175V10.762C47.4175 10.174 47.2555 9.718 46.9315 9.394C46.6195 9.07 46.1875 8.908 45.6355 8.908C45.0235 8.908 44.5375 9.1 44.1775 9.484C43.8295 9.856 43.6555 10.408 43.6555 11.14V16H41.3335V3.4H43.6555V8.008C44.2075 7.168 45.1015 6.748 46.3375 6.748ZM52.8742 5.92C52.4902 5.92 52.1542 5.782 51.8662 5.506C51.5902 5.218 51.4522 4.882 51.4522 4.498C51.4522 4.114 51.5902 3.778 51.8662 3.49C52.1542 3.202 52.4902 3.058 52.8742 3.058C53.2702 3.058 53.6062 3.202 53.8822 3.49C54.1702 3.778 54.3142 4.114 54.3142 4.498C54.3142 4.882 54.1702 5.218 53.8822 5.506C53.6062 5.782 53.2702 5.92 52.8742 5.92ZM54.0442 16H51.7222V7H54.0442V16ZM60.7414 11.446L64.4674 16H61.7674L58.4914 11.914V16H56.1694V3.4H58.4914V10.96L61.5874 7H64.3594L60.7414 11.446ZM78.3525 13.3L80.5485 7H83.1045L79.6845 16H77.0385L73.6185 7H76.1745L78.3525 13.3ZM96.4821 1.6L89.2821 17.8H88.2561L95.4561 1.6H96.4821ZM142.387 14.704C142.387 15.124 142.237 15.484 141.937 15.784C141.637 16.084 141.277 16.234 140.857 16.234C140.437 16.234 140.077 16.084 139.777 15.784C139.477 15.484 139.327 15.124 139.327 14.704C139.327 14.284 139.477 13.924 139.777 13.624C140.077 13.324 140.437 13.174 140.857 13.174C141.277 13.174 141.637 13.324 141.937 13.624C142.237 13.924 142.387 14.284 142.387 14.704Z" fill="white"/>
<path d="M107.794 7V9.232H105.76V12.976C105.76 13.288 105.838 13.516 105.994 13.66C106.15 13.804 106.378 13.888 106.678 13.912C106.978 13.924 107.35 13.918 107.794 13.894V16C106.222 16.18 105.1 16.036 104.428 15.568C103.768 15.088 103.438 14.224 103.438 12.976V9.232H101.872V7H103.438V5.182L105.76 4.48V7H107.794ZM117.898 12.454H111.112C111.412 13.582 112.258 14.146 113.65 14.146C114.538 14.146 115.21 13.846 115.666 13.246L117.538 14.326C116.65 15.61 115.342 16.252 113.614 16.252C112.126 16.252 110.932 15.802 110.032 14.902C109.132 14.002 108.682 12.868 108.682 11.5C108.682 10.156 109.126 9.028 110.014 8.116C110.89 7.204 112.03 6.748 113.434 6.748C114.766 6.748 115.852 7.204 116.692 8.116C117.556 9.028 117.988 10.156 117.988 11.5C117.988 11.752 117.958 12.07 117.898 12.454ZM111.076 10.654H115.666C115.534 10.066 115.264 9.616 114.856 9.304C114.46 8.992 113.986 8.836 113.434 8.836C112.81 8.836 112.294 8.998 111.886 9.322C111.478 9.634 111.208 10.078 111.076 10.654ZM123.823 16.252C122.467 16.252 121.333 15.796 120.421 14.884C119.521 13.972 119.071 12.844 119.071 11.5C119.071 10.156 119.521 9.028 120.421 8.116C121.333 7.204 122.467 6.748 123.823 6.748C124.699 6.748 125.497 6.958 126.217 7.378C126.937 7.798 127.483 8.362 127.855 9.07L125.857 10.24C125.677 9.868 125.401 9.574 125.029 9.358C124.669 9.142 124.261 9.034 123.805 9.034C123.109 9.034 122.533 9.268 122.077 9.736C121.621 10.192 121.393 10.78 121.393 11.5C121.393 12.196 121.621 12.784 122.077 13.264C122.533 13.72 123.109 13.948 123.805 13.948C124.273 13.948 124.687 13.846 125.047 13.642C125.419 13.426 125.695 13.132 125.875 12.76L127.891 13.912C127.495 14.632 126.931 15.202 126.199 15.622C125.479 16.042 124.687 16.252 123.823 16.252ZM134.123 6.748C135.119 6.748 135.929 7.078 136.553 7.738C137.201 8.41 137.525 9.322 137.525 10.474V16H135.203V10.762C135.203 10.174 135.041 9.718 134.717 9.394C134.405 9.07 133.973 8.908 133.421 8.908C132.809 8.908 132.323 9.1 131.963 9.484C131.615 9.856 131.441 10.408 131.441 11.14V16H129.119V3.4H131.441V8.008C131.993 7.168 132.887 6.748 134.123 6.748Z" fill="#E82121"/>
<g clip-path="url(#clip0_5_8)">
<path fill-rule="evenodd" clip-rule="evenodd" d="M66.0913 6.95839C65.5851 7.26163 65.2877 7.81078 64.6928 8.90907L64.4916 9.28053C63.8967 10.3788 63.5993 10.928 63.6155 11.5292C63.6318 12.1305 63.9589 12.6765 64.613 13.7685L64.8343 14.1378C65.4885 15.2297 65.8155 15.7757 66.338 16.0738C66.8605 16.3718 67.485 16.3686 68.734 16.3623L69.1565 16.3602C70.4055 16.3538 71.03 16.3507 71.5362 16.0474C72.0424 15.7442 72.3398 15.195 72.9347 14.0967L73.1359 13.7253C73.7308 12.627 74.0282 12.0778 74.0119 11.4766C73.9957 10.8753 73.6686 10.3293 73.0144 9.23736L72.7932 8.86804C72.139 7.77607 71.8119 7.23009 71.2895 6.93206C70.767 6.63403 70.1425 6.6372 68.8935 6.64352L68.471 6.64566C67.222 6.65199 66.5975 6.65515 66.0913 6.95839ZM67.1095 12.5238C66.5457 11.5826 66.8516 10.3626 67.7928 9.79871C68.734 9.23487 69.9541 9.54079 70.5179 10.482C71.0818 11.4232 70.7759 12.6433 69.8347 13.2071C68.8935 13.7709 67.6734 13.465 67.1095 12.5238Z" fill="#E82121"/>
</g>
<defs>
<clipPath id="clip0_5_8">
<rect x="59.899" y="9.43289" width="12.7142" height="12.7142" rx="5" transform="rotate(-30.9243 59.899 9.43289)" fill="white"/>
</clipPath>
</defs>
</svg>
