<svg width="702" height="702" viewBox="0 0 702 702" fill="none" xmlns="http://www.w3.org/2000/svg">
<g clip-path="url(#clip0_67_114)">
<g filter="url(#filter0_f_67_114)">
<path fill-rule="evenodd" clip-rule="evenodd" d="M338.909 127.791C401.92 128.825 458.943 61.8978 518.509 82.4737C577.782 102.949 622.462 166.475 630.818 228.626C638.958 289.169 573.576 334.135 560.363 393.777C548.669 446.559 587.735 506.861 559.029 552.672C530.123 598.8 468.53 610.223 415.934 624.26C364.413 638.011 312.512 637.655 259.425 632.633C194.97 626.536 93.6608 653.412 73.5485 591.873C49.0314 516.856 158.894 461.45 178.493 385.001C187.802 348.691 156.921 314.933 154.132 277.552C149.044 209.343 102.343 119.584 155.48 76.5159C205.821 35.7148 274.118 126.728 338.909 127.791Z" fill="url(#paint0_linear_67_114)" fill-opacity="0.4"/>
</g>
</g>
<defs>
<filter id="filter0_f_67_114" x="-30" y="-34" width="761.517" height="769.82" filterUnits="userSpaceOnUse" color-interpolation-filters="sRGB">
<feFlood flood-opacity="0" result="BackgroundImageFix"/>
<feBlend mode="normal" in="SourceGraphic" in2="BackgroundImageFix" result="shape"/>
<feGaussianBlur stdDeviation="50" result="effect1_foregroundBlur_67_114"/>
</filter>
<linearGradient id="paint0_linear_67_114" x1="136" y1="66" x2="537" y2="636" gradientUnits="userSpaceOnUse">
<stop stop-color="#0930FF"/>
<stop offset="1" stop-color="#FF0000"/>
</linearGradient>
<clipPath id="clip0_67_114">
<rect width="702" height="702" fill="white"/>
</clipPath>
</defs>
</svg>
