<svg width="35" height="22" viewBox="0 0 35 22" fill="none" xmlns="http://www.w3.org/2000/svg">
<path d="M5.696 9.544C5.696 10.2267 6.66667 10.8133 8.608 11.304C9.29067 11.4533 9.90933 11.6347 10.464 11.848C11.0187 12.04 11.5733 12.328 12.128 12.712C12.704 13.0747 13.152 13.5653 13.472 14.184C13.792 14.8027 13.952 15.5173 13.952 16.328C13.952 17.9707 13.3333 19.24 12.096 20.136C10.8587 21.0107 9.33333 21.448 7.52 21.448C4.23467 21.448 1.99467 20.1787 0.8 17.64L4.384 15.624C4.87467 17.0107 5.92 17.704 7.52 17.704C8.992 17.704 9.728 17.2453 9.728 16.328C9.728 15.6453 8.75733 15.0587 6.816 14.568C6.09067 14.376 5.472 14.184 4.96 13.992C4.448 13.8 3.89333 13.5227 3.296 13.16C2.69867 12.776 2.24 12.296 1.92 11.72C1.62133 11.1227 1.472 10.4293 1.472 9.64C1.472 8.06133 2.048 6.824 3.2 5.928C4.37333 5.01067 5.824 4.552 7.552 4.552C8.85333 4.552 10.0373 4.85067 11.104 5.448C12.1707 6.024 13.0133 6.856 13.632 7.944L10.112 9.864C9.6 8.776 8.74667 8.232 7.552 8.232C7.01867 8.232 6.57067 8.36 6.208 8.616C5.86667 8.85067 5.696 9.16 5.696 9.544ZM34.1955 18.696C34.1955 19.4427 33.9288 20.0827 33.3955 20.616C32.8622 21.1493 32.2222 21.416 31.4755 21.416C30.7288 21.416 30.0888 21.1493 29.5555 20.616C29.0222 20.0827 28.7555 19.4427 28.7555 18.696C28.7555 17.9493 29.0222 17.3093 29.5555 16.776C30.0888 16.2427 30.7288 15.976 31.4755 15.976C32.2222 15.976 32.8622 16.2427 33.3955 16.776C33.9288 17.3093 34.1955 17.9493 34.1955 18.696Z" fill="white"/>
<path d="M25.915 5V8.968H22.299V15.624C22.299 16.1787 22.4377 16.584 22.715 16.84C22.9923 17.096 23.3977 17.2453 23.931 17.288C24.4643 17.3093 25.1257 17.2987 25.915 17.256V21C23.1203 21.32 21.1257 21.064 19.931 20.232C18.7577 19.3787 18.171 17.8427 18.171 15.624V8.968H15.387V5H18.171V1.768L22.299 0.519999V5H25.915Z" fill="#E82121"/>
</svg>
