<svg width="895" height="159" viewBox="0 0 895 159" fill="none" xmlns="http://www.w3.org/2000/svg">
<g filter="url(#filter0_f_63_109)">
<path d="M66.15 61.75C76.95 61.75 85.1 64.1 90.6 68.8C94.9 72.5 97.05 77.65 97.05 84.25C97.05 86.45 96.8 88.85 96.3 91.45L93.15 109C91.25 119.6 86.8 127.1 79.8 131.5C72.9 135.9 63.65 138.1 52.05 138.1C40.45 138.1 31.95 135.9 26.55 131.5C22.55 128.2 20.55 123.25 20.55 116.65C20.55 114.35 20.8 111.8 21.3 109L24.45 91.45C27.95 71.65 41.85 61.75 66.15 61.75ZM70.2 94.45C70.4 93.45 70.5 92.2 70.5 90.7C70.5 89.1 69.85 87.35 68.55 85.45C67.25 83.55 64.95 82.6 61.65 82.6C58.45 82.6 55.75 83.7 53.55 85.9C51.35 88 49.95 90.85 49.35 94.45L47.4 105.7C47.2 106.7 47.1 108 47.1 109.6C47.1 111.1 47.75 112.75 49.05 114.55C50.35 116.35 52.6 117.25 55.8 117.25C59.1 117.25 61.85 116.15 64.05 113.95C66.25 111.65 67.65 108.9 68.25 105.7L70.2 94.45ZM178.268 112.9C178.268 115.5 179.568 116.8 182.168 116.8C184.868 116.8 187.118 116.3 188.918 115.3L188.168 132.25C183.368 136.15 177.968 138.1 171.968 138.1C160.668 138.1 154.518 133.75 153.518 125.05C147.518 133.75 139.418 138.1 129.218 138.1C119.118 138.1 112.568 135.8 109.568 131.2C107.568 128.3 106.568 125 106.568 121.3C106.568 117.6 106.868 114.2 107.468 111.1L115.868 63.85H141.368L134.318 103.75C134.018 105.55 133.868 107.35 133.868 109.15C133.868 113.95 136.568 116.35 141.968 116.35C146.468 116.35 150.068 114.8 152.768 111.7L161.318 63.85H186.818L178.418 111.1C178.318 111.7 178.268 112.3 178.268 112.9ZM271.003 79.15C271.003 82.55 270.403 85.85 269.203 89.05C268.103 92.25 267.003 94.6 265.903 96.1L264.253 98.2H241.603C244.103 95.9 245.353 93.05 245.353 89.65C245.353 87.85 244.753 86.4 243.553 85.3C242.453 84.1 240.903 83.5 238.903 83.5C235.503 83.5 232.553 85.2 230.053 88.6L221.653 136H196.153L208.903 63.85H232.603L230.803 73.9C236.503 65.8 243.403 61.75 251.503 61.75C258.003 61.75 262.853 63.3 266.053 66.4C269.353 69.5 271.003 73.75 271.003 79.15ZM435.539 116.8C437.839 116.8 439.889 116.3 441.689 115.3L440.939 132.25C436.239 136.15 430.889 138.1 424.889 138.1C411.289 138.1 404.489 132.4 404.489 121C404.489 119 404.689 116.85 405.089 114.55L408.239 96.1C408.539 94.3 408.689 92.5 408.689 90.7C408.689 85.9 406.039 83.5 400.739 83.5C395.539 83.5 391.439 85.55 388.439 89.65L380.339 136H354.839L361.889 96.1C362.189 94.3 362.339 92.5 362.339 90.7C362.339 85.9 359.639 83.5 354.239 83.5C349.939 83.5 346.239 85.15 343.139 88.45L334.739 136H309.239L321.989 63.85H345.689L344.039 72.85C350.039 65.45 357.639 61.75 366.839 61.75C379.839 61.75 387.239 66.05 389.039 74.65C395.039 66.05 403.039 61.75 413.039 61.75C423.139 61.75 429.689 64 432.689 68.5C434.689 71.6 435.689 75 435.689 78.7C435.689 82.4 435.439 85.75 434.939 88.75L431.189 111.1C431.089 111.7 431.039 112.25 431.039 112.75C431.039 115.45 432.539 116.8 435.539 116.8ZM482.149 116.8C484.449 116.8 486.499 116.3 488.299 115.3L487.549 132.25C482.849 136.15 477.499 138.1 471.499 138.1C462.399 138.1 456.499 136 453.799 131.8C451.999 129 451.099 126.05 451.099 122.95C451.099 119.75 451.299 116.95 451.699 114.55L460.699 63.85H486.199L477.799 111.1C477.699 111.7 477.649 112.25 477.649 112.75C477.649 115.45 479.149 116.8 482.149 116.8ZM463.699 39.4C463.699 33 465.099 28.35 467.899 25.45C470.799 22.45 475.249 20.95 481.249 20.95C489.649 20.95 493.849 24.65 493.849 32.05C493.849 38.35 492.399 42.95 489.499 45.85C486.699 48.75 482.249 50.2 476.149 50.2C467.849 50.2 463.699 46.6 463.699 39.4ZM572.521 79.45C572.521 82.75 571.521 85.8 569.521 88.6H544.921C545.721 88 546.121 87 546.121 85.6C546.121 84.2 545.321 83.1 543.721 82.3C542.121 81.4 540.071 80.95 537.571 80.95C530.071 80.95 526.321 83.25 526.321 87.85C526.321 89.65 527.721 90.95 530.521 91.75C533.321 92.55 536.721 93.2 540.721 93.7C544.721 94.2 548.721 94.95 552.721 95.95C556.721 96.85 560.121 98.7 562.921 101.5C565.721 104.3 567.121 108.05 567.121 112.75C567.121 121.05 563.771 127.35 557.071 131.65C550.471 135.95 540.821 138.1 528.121 138.1C515.421 138.1 506.521 136.05 501.421 131.95C497.421 128.75 495.421 124.35 495.421 118.75C495.421 117.15 495.571 115.5 495.871 113.8L520.921 113.5C520.721 114.9 521.521 116.15 523.321 117.25C525.221 118.25 527.971 118.75 531.571 118.75C535.171 118.75 537.771 118.4 539.371 117.7C540.971 116.9 541.771 115.45 541.771 113.35C541.771 111.95 540.371 111 537.571 110.5C534.771 109.9 531.321 109.4 527.221 109C523.221 108.6 519.171 107.95 515.071 107.05C511.071 106.15 507.671 104.25 504.871 101.35C502.071 98.45 500.671 94.65 500.671 89.95C500.671 80.85 504.171 73.85 511.171 68.95C518.271 64.05 528.471 61.6 541.771 61.6C562.271 61.6 572.521 67.55 572.521 79.45ZM654.845 79.45C654.845 82.75 653.845 85.8 651.845 88.6H627.245C628.045 88 628.445 87 628.445 85.6C628.445 84.2 627.645 83.1 626.045 82.3C624.445 81.4 622.395 80.95 619.895 80.95C612.395 80.95 608.645 83.25 608.645 87.85C608.645 89.65 610.045 90.95 612.845 91.75C615.645 92.55 619.045 93.2 623.045 93.7C627.045 94.2 631.045 94.95 635.045 95.95C639.045 96.85 642.445 98.7 645.245 101.5C648.045 104.3 649.445 108.05 649.445 112.75C649.445 121.05 646.095 127.35 639.395 131.65C632.795 135.95 623.145 138.1 610.445 138.1C597.745 138.1 588.845 136.05 583.745 131.95C579.745 128.75 577.745 124.35 577.745 118.75C577.745 117.15 577.895 115.5 578.195 113.8L603.245 113.5C603.045 114.9 603.845 116.15 605.645 117.25C607.545 118.25 610.295 118.75 613.895 118.75C617.495 118.75 620.095 118.4 621.695 117.7C623.295 116.9 624.095 115.45 624.095 113.35C624.095 111.95 622.695 111 619.895 110.5C617.095 109.9 613.645 109.4 609.545 109C605.545 108.6 601.495 107.95 597.395 107.05C593.395 106.15 589.995 104.25 587.195 101.35C584.395 98.45 582.995 94.65 582.995 89.95C582.995 80.85 586.495 73.85 593.495 68.95C600.595 64.05 610.795 61.6 624.095 61.6C644.595 61.6 654.845 67.55 654.845 79.45ZM693.819 116.8C696.119 116.8 698.169 116.3 699.969 115.3L699.219 132.25C694.519 136.15 689.169 138.1 683.169 138.1C674.069 138.1 668.169 136 665.469 131.8C663.669 129 662.769 126.05 662.769 122.95C662.769 119.75 662.969 116.95 663.369 114.55L672.369 63.85H697.869L689.469 111.1C689.369 111.7 689.319 112.25 689.319 112.75C689.319 115.45 690.819 116.8 693.819 116.8ZM675.369 39.4C675.369 33 676.769 28.35 679.569 25.45C682.469 22.45 686.919 20.95 692.919 20.95C701.319 20.95 705.519 24.65 705.519 32.05C705.519 38.35 704.069 42.95 701.169 45.85C698.369 48.75 693.919 50.2 687.819 50.2C679.519 50.2 675.369 46.6 675.369 39.4ZM754.041 61.75C764.841 61.75 772.991 64.1 778.491 68.8C782.791 72.5 784.941 77.65 784.941 84.25C784.941 86.45 784.691 88.85 784.191 91.45L781.041 109C779.141 119.6 774.691 127.1 767.691 131.5C760.791 135.9 751.541 138.1 739.941 138.1C728.341 138.1 719.841 135.9 714.441 131.5C710.441 128.2 708.441 123.25 708.441 116.65C708.441 114.35 708.691 111.8 709.191 109L712.341 91.45C715.841 71.65 729.741 61.75 754.041 61.75ZM758.091 94.45C758.291 93.45 758.391 92.2 758.391 90.7C758.391 89.1 757.741 87.35 756.441 85.45C755.141 83.55 752.841 82.6 749.541 82.6C746.341 82.6 743.641 83.7 741.441 85.9C739.241 88 737.841 90.85 737.241 94.45L735.291 105.7C735.091 106.7 734.991 108 734.991 109.6C734.991 111.1 735.641 112.75 736.941 114.55C738.241 116.35 740.491 117.25 743.691 117.25C746.991 117.25 749.741 116.15 751.941 113.95C754.141 111.65 755.541 108.9 756.141 105.7L758.091 94.45ZM842.159 89.95C842.159 85.65 840.059 83.5 835.859 83.5C831.759 83.5 828.359 85.05 825.659 88.15L817.259 136H791.759L804.509 63.85H828.209L826.559 72.7C832.459 65.4 839.909 61.75 848.909 61.75C857.909 61.75 863.759 63.95 866.459 68.35C868.159 71.15 869.009 74.35 869.009 77.95C869.009 81.55 868.759 84.9 868.259 88L864.209 111.1C864.109 111.7 864.059 112.25 864.059 112.75C864.059 115.45 865.559 116.8 868.559 116.8C870.859 116.8 872.909 116.3 874.709 115.3L873.959 132.25C869.259 136.15 863.909 138.1 857.909 138.1C844.309 138.1 837.509 132.4 837.509 121C837.509 119 837.709 116.85 838.109 114.55L841.709 94.6C842.009 92.8 842.159 91.25 842.159 89.95Z" fill="white" fill-opacity="0.37"/>
</g>
<defs>
<filter id="filter0_f_63_109" x="0.549988" y="0.949951" width="894.159" height="157.15" filterUnits="userSpaceOnUse" color-interpolation-filters="sRGB">
<feFlood flood-opacity="0" result="BackgroundImageFix"/>
<feBlend mode="normal" in="SourceGraphic" in2="BackgroundImageFix" result="shape"/>
<feGaussianBlur stdDeviation="10" result="effect1_foregroundBlur_63_109"/>
</filter>
</defs>
</svg>
